# xmcd
#
# Track frame offsets: 
#        150
#        15644
#        35947
#        48749
#        71409
#        91504
#        112208
#        133494
#        159875
#        189421
#        202525
#        218679
#        237499
#
# Disc length: 3462 seconds
#
# Revision: 4
# Processed by: cddbd v1.5.2PL0 Copyright (c) Steve Scherf et al.
# Submitted via: ExactAudioCopy v0.99pb4
#
DISCID=b30d840d
DTITLE=Various Artist - The 80's Collection (S&V 019)
DYEAR=1999
DGENRE=Rock and Roll
TTITLE0=ABC - Poison Arrow
TTITLE1=Bob Geldof - This Is The World Calling
TTITLE2=The Jam - Absolute Beginners
TTITLE3=Level 42 - Leaving Me Now
TTITLE4=Robert Palmer - Addicted To Love
TTITLE5=The Style Council - My Ever Changing Moods
TTITLE6=Status Quo - In The Army Now
TTITLE7=Steve Winwood - The Finer Things
TTITLE8=Tears For Fears - Shout
TTITLE9=The Jam - Town Called Malice
TTITLE10=Julian Cope - World Shut Your Mouth
TTITLE11=Soft Cell - Torch
TTITLE12=Sam Brown - Stop!
EXTD=
EXTT0=
EXTT1=
EXTT2=
EXTT3=
EXTT4=
EXTT5=
EXTT6=
EXTT7=
EXTT8=
EXTT9=
EXTT10=
EXTT11=
EXTT12=
PLAYORDER=
